<svg xmlns="http://www.w3.org/2000/svg" viewBox="0 0 1200 630" width="1200" height="630">
  <!-- Dark red background -->
  <rect width="1200" height="630" fill="#1a0000" />
  
  <!-- CRT scan lines effect -->
  <g opacity="0.05">
    <rect width="1200" height="2" y="0" fill="#ffffff" />
    <rect width="1200" height="2" y="4" fill="#ffffff" />
    <rect width="1200" height="2" y="8" fill="#ffffff" />
    <rect width="1200" height="2" y="12" fill="#ffffff" />
    <rect width="1200" height="2" y="16" fill="#ffffff" />
    <rect width="1200" height="2" y="20" fill="#ffffff" />
    <rect width="1200" height="2" y="24" fill="#ffffff" />
    <rect width="1200" height="2" y="28" fill="#ffffff" />
    <rect width="1200" height="2" y="32" fill="#ffffff" />
    <rect width="1200" height="2" y="36" fill="#ffffff" />
    <rect width="1200" height="2" y="40" fill="#ffffff" />
    <rect width="1200" height="2" y="44" fill="#ffffff" />
    <rect width="1200" height="2" y="48" fill="#ffffff" />
    <rect width="1200" height="2" y="52" fill="#ffffff" />
    <rect width="1200" height="2" y="56" fill="#ffffff" />
    <rect width="1200" height="2" y="60" fill="#ffffff" />
    <rect width="1200" height="2" y="64" fill="#ffffff" />
    <rect width="1200" height="2" y="68" fill="#ffffff" />
    <rect width="1200" height="2" y="72" fill="#ffffff" />
    <rect width="1200" height="2" y="76" fill="#ffffff" />
    <rect width="1200" height="2" y="80" fill="#ffffff" />
    <rect width="1200" height="2" y="84" fill="#ffffff" />
    <rect width="1200" height="2" y="88" fill="#ffffff" />
    <rect width="1200" height="2" y="92" fill="#ffffff" />
    <rect width="1200" height="2" y="96" fill="#ffffff" />
    <rect width="1200" height="2" y="100" fill="#ffffff" />
    <rect width="1200" height="2" y="104" fill="#ffffff" />
    <rect width="1200" height="2" y="108" fill="#ffffff" />
    <rect width="1200" height="2" y="112" fill="#ffffff" />
    <rect width="1200" height="2" y="116" fill="#ffffff" />
    <rect width="1200" height="2" y="120" fill="#ffffff" />
    <rect width="1200" height="2" y="124" fill="#ffffff" />
    <rect width="1200" height="2" y="128" fill="#ffffff" />
    <rect width="1200" height="2" y="132" fill="#ffffff" />
    <rect width="1200" height="2" y="136" fill="#ffffff" />
    <rect width="1200" height="2" y="140" fill="#ffffff" />
  </g>
  
  <!-- Pixelated Blood moon -->
  <g transform="translate(900, 150)">
    <!-- Base shape - pixelated circle -->
    <rect x="-80" y="-80" width="20" height="20" fill="#880000" />
    <rect x="-60" y="-80" width="20" height="20" fill="#990000" />
    <rect x="-40" y="-80" width="20" height="20" fill="#990000" />
    <rect x="-20" y="-80" width="20" height="20" fill="#990000" />
    <rect x="0" y="-80" width="20" height="20" fill="#990000" />
    <rect x="20" y="-80" width="20" height="20" fill="#990000" />
    <rect x="40" y="-80" width="20" height="20" fill="#880000" />
    
    <rect x="-80" y="-60" width="20" height="20" fill="#990000" />
    <rect x="-60" y="-60" width="20" height="20" fill="#aa0000" />
    <rect x="-40" y="-60" width="20" height="20" fill="#cc0000" />
    <rect x="-20" y="-60" width="20" height="20" fill="#cc0000" />
    <rect x="0" y="-60" width="20" height="20" fill="#cc0000" />
    <rect x="20" y="-60" width="20" height="20" fill="#aa0000" />
    <rect x="40" y="-60" width="20" height="20" fill="#990000" />
    
    <rect x="-80" y="-40" width="20" height="20" fill="#990000" />
    <rect x="-60" y="-40" width="20" height="20" fill="#cc0000" />
    <rect x="-40" y="-40" width="20" height="20" fill="#ee0000" />
    <rect x="-20" y="-40" width="20" height="20" fill="#ff0000" />
    <rect x="0" y="-40" width="20" height="20" fill="#ee0000" />
    <rect x="20" y="-40" width="20" height="20" fill="#cc0000" />
    <rect x="40" y="-40" width="20" height="20" fill="#990000" />
    
    <rect x="-80" y="-20" width="20" height="20" fill="#990000" />
    <rect x="-60" y="-20" width="20" height="20" fill="#cc0000" />
    <rect x="-40" y="-20" width="20" height="20" fill="#ff0000" />
    <rect x="-20" y="-20" width="20" height="20" fill="#ff0000" />
    <rect x="0" y="-20" width="20" height="20" fill="#ff0000" />
    <rect x="20" y="-20" width="20" height="20" fill="#cc0000" />
    <rect x="40" y="-20" width="20" height="20" fill="#990000" />
    
    <rect x="-80" y="0" width="20" height="20" fill="#990000" />
    <rect x="-60" y="0" width="20" height="20" fill="#cc0000" />
    <rect x="-40" y="0" width="20" height="20" fill="#ff0000" />
    <rect x="-20" y="0" width="20" height="20" fill="#ff0000" />
    <rect x="0" y="0" width="20" height="20" fill="#ff0000" />
    <rect x="20" y="0" width="20" height="20" fill="#cc0000" />
    <rect x="40" y="0" width="20" height="20" fill="#990000" />
    
    <rect x="-80" y="20" width="20" height="20" fill="#990000" />
    <rect x="-60" y="20" width="20" height="20" fill="#aa0000" />
    <rect x="-40" y="20" width="20" height="20" fill="#cc0000" />
    <rect x="-20" y="20" width="20" height="20" fill="#cc0000" />
    <rect x="0" y="20" width="20" height="20" fill="#cc0000" />
    <rect x="20" y="20" width="20" height="20" fill="#aa0000" />
    <rect x="40" y="20" width="20" height="20" fill="#990000" />
    
    <rect x="-80" y="40" width="20" height="20" fill="#880000" />
    <rect x="-60" y="40" width="20" height="20" fill="#990000" />
    <rect x="-40" y="40" width="20" height="20" fill="#990000" />
    <rect x="-20" y="40" width="20" height="20" fill="#990000" />
    <rect x="0" y="40" width="20" height="20" fill="#990000" />
    <rect x="20" y="40" width="20" height="20" fill="#990000" />
    <rect x="40" y="40" width="20" height="20" fill="#880000" />
  </g>
  
  <!-- Detailed pixelated castle -->
  <g transform="translate(0, 0)">
    <!-- Main castle structure -->
    <!-- Left tower -->
    <rect x="200" y="300" width="20" height="100" fill="#770000" />
    <rect x="220" y="300" width="20" height="100" fill="#660000" />
    <rect x="200" y="280" width="40" height="20" fill="#880000" />
    <rect x="190" y="270" width="60" height="10" fill="#770000" />
    <!-- Battlements on left tower -->
    <rect x="190" y="260" width="10" height="10" fill="#770000" />
    <rect x="210" y="260" width="10" height="10" fill="#770000" />
    <rect x="230" y="260" width="10" height="10" fill="#770000" />
    
    <!-- Middle tower -->
    <rect x="350" y="320" width="30" height="80" fill="#770000" />
    <rect x="380" y="320" width="20" height="80" fill="#660000" />
    <rect x="350" y="300" width="50" height="20" fill="#880000" />
    <rect x="340" y="290" width="70" height="10" fill="#770000" />
    <!-- Battlements on middle tower -->
    <rect x="340" y="280" width="10" height="10" fill="#770000" />
    <rect x="360" y="280" width="10" height="10" fill="#770000" />
    <rect x="380" y="280" width="10" height="10" fill="#770000" />
    <rect x="400" y="280" width="10" height="10" fill="#770000" />
    
    <!-- Right tower (larger) -->
    <rect x="500" y="350" width="40" height="50" fill="#770000" />
    <rect x="540" y="350" width="30" height="50" fill="#660000" />
    <rect x="500" y="330" width="70" height="20" fill="#880000" />
    <rect x="490" y="320" width="90" height="10" fill="#770000" />
    <!-- Battlements on right tower -->
    <rect x="490" y="310" width="10" height="10" fill="#770000" />
    <rect x="510" y="310" width="10" height="10" fill="#770000" />
    <rect x="530" y="310" width="10" height="10" fill="#770000" />
    <rect x="550" y="310" width="10" height="10" fill="#770000" />
    <rect x="570" y="310" width="10" height="10" fill="#770000" />
    
    <!-- Castle walls connecting towers -->
    <rect x="240" y="350" width="110" height="50" fill="#660000" />
    <rect x="400" y="370" width="100" height="30" fill="#660000" />
    
    <!-- Windows and details -->
    <rect x="210" y="320" width="10" height="15" fill="#aa0000" />
    <rect x="365" y="340" width="10" height="15" fill="#aa0000" />
    <rect x="520" y="360" width="10" height="15" fill="#aa0000" />
    
    <!-- Castle gate -->
    <rect x="270" y="370" width="30" height="30" fill="#550000" />
    <rect x="270" y="360" width="30" height="10" fill="#770000" />
  </g>
  
  <!-- Ground/horizon with dithering -->
  <g>
    <rect x="0" y="400" width="1200" height="230" fill="#220000" />
    <!-- Dithering pattern for ground -->
    <g opacity="0.2">
      <rect x="0" y="400" width="4" height="4" fill="#330000" />
      <rect x="8" y="400" width="4" height="4" fill="#330000" />
      <rect x="4" y="404" width="4" height="4" fill="#330000" />
      <rect x="12" y="404" width="4" height="4" fill="#330000" />
      <!-- Pattern repeats across ground -->
    </g>
  </g>
  
  <!-- Pixelated Blood drop -->
  <g transform="translate(600, 300)">
    <!-- Pixelated drop shape -->
    <rect x="-30" y="-60" width="10" height="10" fill="#990000" />
    <rect x="-20" y="-60" width="10" height="10" fill="#aa0000" />
    <rect x="-10" y="-60" width="10" height="10" fill="#aa0000" />
    <rect x="0" y="-60" width="10" height="10" fill="#aa0000" />
    <rect x="10" y="-60" width="10" height="10" fill="#990000" />
    
    <rect x="-40" y="-50" width="10" height="10" fill="#990000" />
    <rect x="-30" y="-50" width="10" height="10" fill="#cc0000" />
    <rect x="-20" y="-50" width="10" height="10" fill="#dd0000" />
    <rect x="-10" y="-50" width="10" height="10" fill="#dd0000" />
    <rect x="0" y="-50" width="10" height="10" fill="#cc0000" />
    <rect x="10" y="-50" width="10" height="10" fill="#cc0000" />
    <rect x="20" y="-50" width="10" height="10" fill="#990000" />
    
    <rect x="-40" y="-40" width="10" height="10" fill="#aa0000" />
    <rect x="-30" y="-40" width="10" height="10" fill="#dd0000" />
    <rect x="-20" y="-40" width="10" height="10" fill="#ff0000" />
    <rect x="-10" y="-40" width="10" height="10" fill="#ff0000" />
    <rect x="0" y="-40" width="10" height="10" fill="#ff0000" />
    <rect x="10" y="-40" width="10" height="10" fill="#dd0000" />
    <rect x="20" y="-40" width="10" height="10" fill="#aa0000" />
    
    <rect x="-40" y="-30" width="10" height="10" fill="#aa0000" />
    <rect x="-30" y="-30" width="10" height="10" fill="#dd0000" />
    <rect x="-20" y="-30" width="10" height="10" fill="#ff0000" />
    <rect x="-10" y="-30" width="10" height="10" fill="#ff0000" />
    <rect x="0" y="-30" width="10" height="10" fill="#ff0000" />
    <rect x="10" y="-30" width="10" height="10" fill="#dd0000" />
    <rect x="20" y="-30" width="10" height="10" fill="#aa0000" />
    
    <rect x="-40" y="-20" width="10" height="10" fill="#aa0000" />
    <rect x="-30" y="-20" width="10" height="10" fill="#dd0000" />
    <rect x="-20" y="-20" width="10" height="10" fill="#ff0000" />
    <rect x="-10" y="-20" width="10" height="10" fill="#ff0000" />
    <rect x="0" y="-20" width="10" height="10" fill="#ff0000" />
    <rect x="10" y="-20" width="10" height="10" fill="#dd0000" />
    <rect x="20" y="-20" width="10" height="10" fill="#aa0000" />
    
    <rect x="-40" y="-10" width="10" height="10" fill="#aa0000" />
    <rect x="-30" y="-10" width="10" height="10" fill="#dd0000" />
    <rect x="-20" y="-10" width="10" height="10" fill="#ff0000" />
    <rect x="-10" y="-10" width="10" height="10" fill="#ff0000" />
    <rect x="0" y="-10" width="10" height="10" fill="#ff0000" />
    <rect x="10" y="-10" width="10" height="10" fill="#dd0000" />
    <rect x="20" y="-10" width="10" height="10" fill="#aa0000" />
    
    <rect x="-40" y="0" width="10" height="10" fill="#aa0000" />
    <rect x="-30" y="0" width="10" height="10" fill="#dd0000" />
    <rect x="-20" y="0" width="10" height="10" fill="#ff0000" />
    <rect x="-10" y="0" width="10" height="10" fill="#ff0000" />
    <rect x="0" y="0" width="10" height="10" fill="#ff0000" />
    <rect x="10" y="0" width="10" height="10" fill="#dd0000" />
    <rect x="20" y="0" width="10" height="10" fill="#aa0000" />
    
    <rect x="-40" y="10" width="10" height="10" fill="#aa0000" />
    <rect x="-30" y="10" width="10" height="10" fill="#cc0000" />
    <rect x="-20" y="10" width="10" height="10" fill="#dd0000" />
    <rect x="-10" y="10" width="10" height="10" fill="#dd0000" />
    <rect x="0" y="10" width="10" height="10" fill="#dd0000" />
    <rect x="10" y="10" width="10" height="10" fill="#cc0000" />
    <rect x="20" y="10" width="10" height="10" fill="#aa0000" />
    
    <rect x="-30" y="20" width="10" height="10" fill="#990000" />
    <rect x="-20" y="20" width="10" height="10" fill="#aa0000" />
    <rect x="-10" y="20" width="10" height="10" fill="#aa0000" />
    <rect x="0" y="20" width="10" height="10" fill="#aa0000" />
    <rect x="10" y="20" width="10" height="10" fill="#990000" />
  </g>

  <g>
    <text x="200" y="100" 
      font-family="monospace" 
      font-size="48" 
      text-anchor="center" 
      fill="#dddddd">VALAXY: BLOODLUST ARCADE
    </text>
    <text x="201" y="101" 
      font-family="monospace" 
      font-size="48" 
      text-anchor="center" 
      fill="#a00000">VALAXY: BLOODLUST ARCADE
    </text>
  </g>
  
  <!-- Copyright and license info with monospace font -->
  <g>
    <text x="200" y="550" 
      font-family="monospace" 
      font-size="20" 
      text-anchor="center" 
      fill="#888888">
      © 2025 WEST COAST AI LABS
    </text>
    
    <text x="200" y="580" 
      font-family="monospace" 
      font-size="20" 
      text-anchor="center" 
      fill="#cc0000">
      LICENSED BY WEST COAST AI LABS
    </text>
  </g>
</svg>